<svg id="图层_1" data-name="图层 1" xmlns="http://www.w3.org/2000/svg" xmlns:xlink="http://www.w3.org/1999/xlink" viewBox="0 0 195 54"><title>微笑06</title><image width="1024" height="858" transform="matrix(-0.04, 0, 0, 0.04, 80.19, 14.2)" xlink:href="./xiaoren1_2.png"/><image width="993" height="950" transform="translate(44.83 0.82) scale(0.05)" xlink:href="./气球2.png"/><path d="M87.26,24.91h.55q0,.26.08.58a5.34,5.34,0,0,0,.24.86,2.5,2.5,0,0,0,.49.87,5,5,0,0,0,.63.58,6,6,0,0,0,.86.53,4,4,0,0,0,1,.37,4.21,4.21,0,0,0,.85.1,2.84,2.84,0,0,0,1.13-.18,2.06,2.06,0,0,0,.69-.44,2.26,2.26,0,0,0,.39-.53,1.56,1.56,0,0,0,.14-.71,1.79,1.79,0,0,0-.25-.91,2.21,2.21,0,0,0-.64-.67,7.82,7.82,0,0,0-1.31-.66q-.91-.38-1.55-.61t-.95-.36a4,4,0,0,1-.69-.39,4.17,4.17,0,0,1-.65-.55,3.73,3.73,0,0,1-.5-.67,2.89,2.89,0,0,1-.32-.78,3.68,3.68,0,0,1-.09-1,2.7,2.7,0,0,1,0-.36q0-.13.08-.44a6.27,6.27,0,0,1,.19-.68,2.34,2.34,0,0,1,.45-.75,5,5,0,0,1,.69-.68,3,3,0,0,1,.85-.47,3.6,3.6,0,0,1,.77-.2,5.49,5.49,0,0,1,.59,0,5.21,5.21,0,0,1,.6.05,6.13,6.13,0,0,1,.73.16,7.83,7.83,0,0,1,.8.27l.6.26.41.16a.8.8,0,0,0,.3.05.31.31,0,0,0,.19-.07.41.41,0,0,0,.1-.25l.11-.75h.6l.09,4.19h-.6q-.07-.37-.16-.77a2.5,2.5,0,0,0-.9-1.46A5,5,0,0,0,93,18a6.1,6.1,0,0,0-.84-.38,3.57,3.57,0,0,0-.65-.17,3.39,3.39,0,0,0-.47,0,2.53,2.53,0,0,0-.85.16,2,2,0,0,0-.71.45,2.27,2.27,0,0,0-.46.65,1.66,1.66,0,0,0-.17.68,1.34,1.34,0,0,0,.11.58,1.47,1.47,0,0,0,.36.53,3.06,3.06,0,0,0,.77.5q.52.26,1.26.55l1.6.6q.86.31,1.22.47a5.49,5.49,0,0,1,.78.44,2.91,2.91,0,0,1,.69.61,3,3,0,0,1,.45.92,3.63,3.63,0,0,1,.16,1.26A4.19,4.19,0,0,1,96,27.13a3.75,3.75,0,0,1-.81,1.26,3.42,3.42,0,0,1-1.37.88,4.86,4.86,0,0,1-1.47.3,3.76,3.76,0,0,1-.77,0,4.33,4.33,0,0,1-.79-.21,9.69,9.69,0,0,1-.91-.4,9,9,0,0,1-.93-.52,5,5,0,0,0-.53-.32.5.5,0,0,0-.18,0,.26.26,0,0,0-.17.08.62.62,0,0,0-.11.3,3.09,3.09,0,0,0-.05.49l0,.61h-.58Z"/><path d="M109.33,28.85v.59H108a1.85,1.85,0,0,1-1.85-1.85V23.29a.86.86,0,0,0-.14-.54.57.57,0,0,0-.42-.21.64.64,0,0,0-.35.08,2,2,0,0,0-.35.27,3,3,0,0,0-.27.28l-.23.28v4.62a2.74,2.74,0,0,0,0,.44.39.39,0,0,0,.15.25.75.75,0,0,0,.44.09h.29v.59h-1.25a1.85,1.85,0,0,1-1.85-1.85V23.29a1.11,1.11,0,0,0-.13-.66.53.53,0,0,0-.36-.19.9.9,0,0,0-.45.12,1.63,1.63,0,0,0-.44.33,1.42,1.42,0,0,0-.28.43,1.36,1.36,0,0,0-.09.52V28a2.16,2.16,0,0,0,0,.49.52.52,0,0,0,.15.26.7.7,0,0,0,.45.1h.44v.59h-4.3v-.59h.29a1.66,1.66,0,0,0,.46,0,.39.39,0,0,0,.23-.17,1.23,1.23,0,0,0,.07-.53V22.91a1.05,1.05,0,0,0-.11-.59.5.5,0,0,0-.41-.14h-.61v-.61H98a6.34,6.34,0,0,0,.8,0l.61-.12.62-.13.39-.09v1.37l.41-.43a4.91,4.91,0,0,1,.51-.43,2.87,2.87,0,0,1,.74-.39,2.24,2.24,0,0,1,.8-.15,2.15,2.15,0,0,1,.66.1,1.12,1.12,0,0,1,.5.36,1,1,0,0,1,.25.46l.08.48q.39-.44.74-.77a2.44,2.44,0,0,1,.76-.49,2.3,2.3,0,0,1,.81-.17,2.36,2.36,0,0,1,.62.1,1.39,1.39,0,0,1,.95.95,2.71,2.71,0,0,1,.08.65v5.22a1.48,1.48,0,0,0,.06.5.43.43,0,0,0,.18.21.7.7,0,0,0,.35.07Z"/><path d="M109.92,22.08V21.5h1.31l.72,0a4.35,4.35,0,0,0,.69-.07l.59-.16.4-.12v7c0,.3,0,.49.11.55a.66.66,0,0,0,.24.14,1.33,1.33,0,0,0,.39,0H115v.61h-5.06v-.61h.57a2,2,0,0,0,.56-.06.41.41,0,0,0,.25-.19,1.15,1.15,0,0,0,.07-.49V23a2.08,2.08,0,0,0,0-.46.5.5,0,0,0-.13-.26.65.65,0,0,0-.29-.13,1.74,1.74,0,0,0-.47,0Zm2.26-5.3a1.35,1.35,0,0,1,.63.17,1.18,1.18,0,0,1,.49.48,1.39,1.39,0,0,1,.18.67,1.25,1.25,0,0,1-.16.65,1.35,1.35,0,0,1-.49.49,1.19,1.19,0,0,1-.65.17,1.27,1.27,0,0,1-.64-.18,1.29,1.29,0,0,1-.48-.48,1.24,1.24,0,0,1-.16-.66,1.33,1.33,0,0,1,.17-.66,1.17,1.17,0,0,1,.49-.48A1.45,1.45,0,0,1,112.18,16.78Z"/><path d="M115.58,17.3h1l.62,0,.58-.1a5.35,5.35,0,0,0,.66-.16l.44-.16.29-.11V27.9a3.13,3.13,0,0,0,0,.59.55.55,0,0,0,.18.31,1.06,1.06,0,0,0,.63.12h.42v.61h-4.85v-.61H116a1.25,1.25,0,0,0,.58-.1.51.51,0,0,0,.25-.28,2.4,2.4,0,0,0,.07-.64V18.68a1,1,0,0,0-.09-.51.57.57,0,0,0-.25-.2.82.82,0,0,0-.34-.07h-.63Z"/><path d="M123.63,25l0,.77a6.06,6.06,0,0,0,.07.83,4.31,4.31,0,0,0,.19.77,2,2,0,0,0,.43.69,2,2,0,0,0,.68.48,2.41,2.41,0,0,0,.9.17,2.56,2.56,0,0,0,.6-.05,2.13,2.13,0,0,0,.61-.23,3.59,3.59,0,0,0,.58-.41,4.82,4.82,0,0,0,.47-.44,3.67,3.67,0,0,0,.35-.46l.2-.31.12-.18.51.3-.15.28a4.65,4.65,0,0,1-.68.9,4.87,4.87,0,0,1-.88.77,3.15,3.15,0,0,1-.91.41,4,4,0,0,1-1,.13,6.36,6.36,0,0,1-1-.07,3.74,3.74,0,0,1-1.08-.32,3.94,3.94,0,0,1-.95-.63,4.09,4.09,0,0,1-.77-.92,3.64,3.64,0,0,1-.46-1.2,6.11,6.11,0,0,1-.13-1.28,5.18,5.18,0,0,1,.05-.68,4.28,4.28,0,0,1,.25-.92,4.13,4.13,0,0,1,.92-1.37,1.92,1.92,0,0,1,.48-.36,4.88,4.88,0,0,1,1.26-.51,5.39,5.39,0,0,1,.92-.08,5.81,5.81,0,0,1,.89.06,4.36,4.36,0,0,1,.76.2,3,3,0,0,1,.81.46,3.42,3.42,0,0,1,.73.78,3.88,3.88,0,0,1,.45.83,4.07,4.07,0,0,1,.19.68c0,.2.06.34.06.41l0,.49Zm3.37-.61c0-.24,0-.46,0-.64a6,6,0,0,0-.07-.61,2.87,2.87,0,0,0-.18-.63,1.57,1.57,0,0,0-.29-.48,1.26,1.26,0,0,0-.47-.29,1.73,1.73,0,0,0-.66-.11,1.89,1.89,0,0,0-.62.1,1.3,1.3,0,0,0-.46.29,1.47,1.47,0,0,0-.33.5,3.24,3.24,0,0,0-.2.82,4.5,4.5,0,0,0-.06.59v.46Z"/><path d="M136.07,21q-.23.34-1,1.67a17,17,0,0,1-1.82,2.61,16.59,16.59,0,0,1-1.83,1.92l-.35.29c-.1.08-.17.09-.21,0a.17.17,0,0,1,0-.2l.24-.37.41-.72a13.06,13.06,0,0,0,.62-1.26q.28-.65.75-2a16.46,16.46,0,0,0,.72-2.88l.05-.34,0-.29a.28.28,0,0,1,.06-.17s.15,0,.34,0l.69.16,1.07.36q.94.33.93.65T136.07,21Zm4.43-4.42V29.48a3.19,3.19,0,0,1-.08.81,1.89,1.89,0,0,1-.54.7,3.23,3.23,0,0,1-1.9.53,1.19,1.19,0,0,1-.45,0,.39.39,0,0,1-.23-.15,2.85,2.85,0,0,1-.09-.77q0-.68-1.44-1.12l-.45-.14c-.21-.07-.29-.14-.22-.21a.27.27,0,0,1,.25-.1l.37.05a10.28,10.28,0,0,0,1.74.13,1,1,0,0,0,.75-.2,1.18,1.18,0,0,0,.16-.72V17.95s0-.07,0-.1l-.12-2.3a.26.26,0,0,1,0-.12s.1,0,.26,0l1.3.15q1.29.14,1.36.46T140.5,16.62Zm4.36,4.76a9.22,9.22,0,0,1,1.25,1.22,5.91,5.91,0,0,1,1,1.58,3.51,3.51,0,0,1,.33,1.45,1.82,1.82,0,0,1-.24.91,1.91,1.91,0,0,1-.57.56,1.47,1.47,0,0,1-.82.23,1.09,1.09,0,0,1-.67-.17,1,1,0,0,1-.37-.48,2.56,2.56,0,0,1-.15-.66l-.05-.78q0-.27-.11-.77a9.73,9.73,0,0,0-.3-1.22,6.57,6.57,0,0,0-.72-1.52,6.25,6.25,0,0,0-.84-1.13l-.47-.47c-.09-.1,0-.16.13-.18a1.79,1.79,0,0,1,.51.18l.41.18A17.8,17.8,0,0,1,144.86,21.38Z"/><path d="M153.91,20.63l.64.2a9.12,9.12,0,0,1,.92.34q.63.26.64.5t-.61.42q-.32.85-.47,1.26l-.73,2.13L153.75,27q.84-.17,1.62-.36l.44-.11c.14,0,.24,0,.29.07s0,.18-.24.29l-.23.13-1.52.86L152,29.18l-1.25.73-.34.2a5,5,0,0,1-.54.31h-.07a1.06,1.06,0,0,1-.11-.33l-.57-2-.13-.42h.24l.54,0a7.17,7.17,0,0,0,.77-.08l1.33-.16.87-.15q.31-1.79.49-3.06t.24-2c0-.48.06-.82.06-1v-.54H149.9l-.58.05-.44-.5.88.11h4.44l.64-.85c.32-.42.52-.62.61-.61a4.43,4.43,0,0,1,.95.82q.81.8.75.89a.32.32,0,0,1-.27.09Zm-3.87.85-.13-.29a.66.66,0,0,1-.07-.24q0-.14.27.07a6.7,6.7,0,0,1,.92,1,7.27,7.27,0,0,1,.93,1.38,5.51,5.51,0,0,1,.39,1,2.63,2.63,0,0,1,.08.85,2,2,0,0,1-.44,1,1.09,1.09,0,0,1-.86.49,1,1,0,0,1-.75-.25,1,1,0,0,1-.25-.75,3.47,3.47,0,0,1,.12-.69q.12-.49.18-.8a3.5,3.5,0,0,0,.07-.68,5,5,0,0,0-.08-.85A5.72,5.72,0,0,0,150,21.48Zm1.08-5.09-.27-.32c-.09-.1-.11-.17-.08-.22a.23.23,0,0,1,.21,0,11.81,11.81,0,0,1,1.21.37,2.34,2.34,0,0,1,1.38,1,2.43,2.43,0,0,1,.36,1.13,1.66,1.66,0,0,1-.18.73,1.56,1.56,0,0,1-.49.57,1.21,1.21,0,0,1-1.53-.16,1.1,1.1,0,0,1-.33-.75,2.9,2.9,0,0,1,.06-.48,3.35,3.35,0,0,0,0-.78,1.87,1.87,0,0,0-.15-.66A2.48,2.48,0,0,0,151.11,16.39Zm7.79,7.66V17l-.07-1.92a.29.29,0,0,1,.15,0l.31,0q.28,0,1.23.19t1,.44a.37.37,0,0,1-.13.24,1.75,1.75,0,0,0-.42,1.22v.69a1.85,1.85,0,0,0,1.85,1.85h0q.26-.38.68-.93c.28-.36.47-.55.56-.55a.34.34,0,0,1,.19.12l.49.45q.38.34.74.7t.28.45a.32.32,0,0,1-.27.09h-3.92a.6.6,0,0,0-.6.6v3.37h1.5c.17-.27.31-.49.42-.65s.22-.26.32-.27a11,11,0,0,1,1.11.43q1,.43,1.08.79c0,.08-.06.2-.2.34l-.36.37v4.65l.08,1.43a.83.83,0,0,1-.24.29,2,2,0,0,1-.77.24,2.44,2.44,0,0,1-.91,0,.37.37,0,0,1-.32-.4V30.17h-4.52l0,1.07a1,1,0,0,1-.06.34.49.49,0,0,1-.31.21,3.35,3.35,0,0,1-.79.11,1.11,1.11,0,0,1-.65-.08.61.61,0,0,1-.17-.28l.07-1.82V25l-.07-1.82s.09-.06.18,0l2,.86Zm-.16,5.78h3.33a.6.6,0,0,0,.6-.6V24.52a.14.14,0,0,0-.14-.14h-3.79a.6.6,0,0,0-.59.6v4.24A.6.6,0,0,0,158.74,29.83Z"/><path d="M80.91,40a3.18,3.18,0,0,0-1.63-1.55A7.92,7.92,0,0,1,78.35,41Q77,43.28,75.56,43.36q-1,0-1-1.28A4.71,4.71,0,0,1,75.91,39,3.27,3.27,0,0,1,78,38q.08-.5.12-1.08H74.94v-.58h3.18q0-.7,0-1.47h1.51q0,.47-.08,1.36.08-.62,0,.12h3.6v.58H79.55c-.05.41-.12.8-.19,1.16a4.64,4.64,0,0,1,2.25,1.39,8.2,8.2,0,0,1,1.67,3.06l-1.59.85A9.64,9.64,0,0,0,80.91,40Zm-3.72.7a11,11,0,0,0,.74-2.48,3.16,3.16,0,0,0-1.9.89A4.86,4.86,0,0,0,74.75,42q0,.93.54.93Q76.22,42.86,77.19,40.73Z"/><path d="M85.31,37.4H90v.5H87.67a3.52,3.52,0,0,1-.39.54h.46q1.08,0,1.12,1V40a.74.74,0,0,1,.54-.23,1.37,1.37,0,0,1,.62.15,7.13,7.13,0,0,0,.23-1.59H91.7a5.55,5.55,0,0,1-.77,2.29,6.86,6.86,0,0,1,1.16,1.82l-1.28,1.2a7.79,7.79,0,0,0-.5-2.4,1.66,1.66,0,0,1-.93.31,1.36,1.36,0,0,1-.5-.08v1.24q-.08.93-1.16,1a1.73,1.73,0,0,1-1.28-.62l.23-.16a.81.81,0,0,0,.43.12c.21,0,.32-.1.35-.23V39.33q0-.39-.35-.39h-.23q-.23.23-.46.43h.7a6.21,6.21,0,0,1-.54,1,1,1,0,0,1,.58,1q0,1.67-3.68,2.21l-.12-.27a5.62,5.62,0,0,0,3-2.48.36.36,0,0,0,0-.15A3.24,3.24,0,0,1,84,41.93c-.39,0-.59-.21-.62-.54q.35-1,1.94-1.12a.4.4,0,0,1,.08-.16,1.2,1.2,0,0,1,.08-.23,2.54,2.54,0,0,1-1.08.23c-.54,0-.81-.18-.81-.54q.23-1,2.21-1.12a3.52,3.52,0,0,0,.39-.54h-.85Zm2.79-2.29q.42.58.39.74a.26.26,0,0,1-.12.23h2.4a.9.9,0,0,1,1,1v.85H90.35V37c0-.23-.1-.35-.31-.35H85V37.9H83.57V36.08H86.9l-.5-.62Zm-4.49,6.24a.27.27,0,0,0,.31.31q.58-.12,1.28-1.2h-.12Q83.88,40.57,83.61,41.35ZM84,39.8a2.65,2.65,0,0,0,1.36-.85q-1.51,0-1.63.62A.29.29,0,0,0,84,39.8Zm5,1.43q.47,0,.81-.85a.74.74,0,0,0-.58-.39.56.56,0,0,0-.39.19v1Z"/><path d="M94.46,38.36h8.68V39H94.46Z"/><path d="M104.68,39.33v1.08a4.91,4.91,0,0,1-.08,1.24l.12,0,.08.08a.42.42,0,0,0,.19.15c-.08-.05-.06,0,0,0V38.83h-1.74v-.5h1.47V36.78h-1.2v-.5h1.2V35.19h1.4v1.08h1.2v.5h-1.2v1.55h1.39v.5h-1.16v1.28h1v.5h-1v1.82a6.8,6.8,0,0,0,.77,0h4.73l-.5,1.16H108a5.17,5.17,0,0,1-2.17-.31A3,3,0,0,1,104.56,42a3.19,3.19,0,0,1-.66,1.39q-.47.47-.77-.08a2.33,2.33,0,0,1,.31-1.71l.23-.23V39.33Zm-1.2,3.56a6.28,6.28,0,0,0,.19-1.28l-.12.12a1.67,1.67,0,0,0-.31,1.12.25.25,0,0,0,.12.16S103.43,43,103.48,42.9Zm4.07-7.59h2.94q.89.08,1,.77v1.66q0,.74-.89.77h-1.35v1.71q0,.47.39.46h1.08q.78.12.85-.85h.31q0,2.4-1.59,2.09h-1.2q-1.28,0-1.28-1.39V38h1.94a.31.31,0,0,0,.35-.35V36.2a.31.31,0,0,0-.35-.35h-2.17Z"/><path d="M117.42,36.23h-.62A6.43,6.43,0,0,1,117,37q.27,1.16-1.47,1v-.27c.23.05.32-.13.27-.54a2.41,2.41,0,0,1-.16-.54l-.12-.43h0a4.48,4.48,0,0,1-.81,1.51,1.15,1.15,0,0,1-1,.47,1.19,1.19,0,0,1-.58-1.47,1.21,1.21,0,0,1,1.2-1,2.32,2.32,0,0,1,.08-.54h1.43a1.66,1.66,0,0,1,0,.27c0,.1-.05.19-.08.27h1.7Zm3.41,7.55a6.51,6.51,0,0,0-3.1-2.36q-.78,1.71-3.52,2.21-1,.16-1.12-.58.31-1.7,3.41-2a.31.31,0,0,1,0-.12V40.8a.11.11,0,0,0,0-.08l0-.08h-3.33v-.58h3.41a6,6,0,0,0,.08-1q-1.16,0-3,0l0-.31a29.29,29.29,0,0,0,6.27-.93.22.22,0,0,0-.15,0,.37.37,0,0,0-.15,0l0-.23c.28.05.4-.06.35-.35a1.72,1.72,0,0,1-.15-.39,2.42,2.42,0,0,0-.16-.46h-.08a3.65,3.65,0,0,1-.62,1.12,1.35,1.35,0,0,1-1.12.54.91.91,0,0,1-.66-1.2,1.33,1.33,0,0,1,1.2-1,5.86,5.86,0,0,0,.12-.58H120a2.83,2.83,0,0,1-.12.54h1.9v.54h-.7q0,.12.12.31a1.78,1.78,0,0,1,.12.31q.23,1.08-1.16.93l1.16,1a22.36,22.36,0,0,1-3.14.27q0,.54,0,1h3.49v.58H118c0,.1-.06.23-.12.39a7.27,7.27,0,0,1,3.87,1.43Zm-7.32-6.2q.27-.12.66-1.36h0a.88.88,0,0,0-.85.7C113.18,37.37,113.25,37.59,113.51,37.59Zm.43,5.54a3.69,3.69,0,0,0,2.4-1.82q-2.32.16-2.94,1.39c-.05.18,0,.31.08.39A.41.41,0,0,0,113.94,43.13Zm3.8-5.65q.35-.16.66-1.2a.87.87,0,0,0-.93.54Q117.35,37.32,117.73,37.47Z"/><path d="M124.51,44.41l-.39-.31.12-.12a2.88,2.88,0,0,0,.81-1.39h-.12l-.08,0a.84.84,0,0,1-.81-.85.83.83,0,0,1,.81-.81q.81,0,.85,1.08A3.72,3.72,0,0,1,124.51,44.41Z"/><path d="M136.29,35.19h1.36V37h1.82V35.19h1.36V37h.7v.54h-.7v3.06a.92.92,0,0,1-1,1h-3.49V37.51h-1.35V43h6.27v.46h-7.63V37.51h-.7V37h.7V35.62h1.36V37h1.35Zm3.18,2.32h-1.82V41h1.51c.21,0,.31-.12.31-.35Z"/><path d="M143.49,35.34h6.31a.94.94,0,0,1,1,.93v1.47a.88.88,0,0,1-1,.93h-2.75a.42.42,0,0,0-.08.15.89.89,0,0,1-.12.19q3.17,0,4.61,1.32l-1,1a7.4,7.4,0,0,0-.7-.81v3.14h-1.47V40.38h1.24a5.6,5.6,0,0,0-2.79-1,5.49,5.49,0,0,1-1,1h.5a3.3,3.3,0,0,1-2.67,3.33l-.19-.23A2.87,2.87,0,0,0,144.65,41q-1,.58-1.55.12a.94.94,0,0,1,0-1.36,3.44,3.44,0,0,1,2.13-.7l.12-.23.12-.19h-2Zm.43,5.19a5.35,5.35,0,0,0,1.24-1.28,3.78,3.78,0,0,0-2,.74.53.53,0,0,0-.08.7C143.25,40.87,143.53,40.82,143.92,40.53Zm1-4.65v.85h1.51v-.85Zm0,1.39v.89h1.51v-.89ZM149,35.89h-1.16v.85h1.51v-.58C149.32,36,149.2,35.91,149,35.89Zm.08,2.29c.15,0,.25-.16.27-.39v-.5h-1.51v.89Z"/><path d="M153,35.58h8.1v.5h-3.41v.77H160q.78,0,.77.89v1.78q0,.85-.81.85h-2.36a1.75,1.75,0,0,1-.16.58,11,11,0,0,1,3.91,1.39l-.85,1.28a9.74,9.74,0,0,0-3.33-1.9,3.55,3.55,0,0,1-2.44,1.66,1.46,1.46,0,0,1-1.67-.62q-.08-1.9,3.14-1.94a3.22,3.22,0,0,0,.12-.46h-2.87V36.85h3v-.77H153Zm.27,7.32q.54.31,1.59-.27a3.4,3.4,0,0,0,1-1.16,4.08,4.08,0,0,0-2.09.23Q152.83,42.28,153.29,42.9Zm3.1-5.58h-1.7v1h1.7Zm-1.7,1.43v1.16h1.66c0-.26,0-.65,0-1.16Zm3,0c0,.52,0,.9,0,1.16h1.43q.39,0,.39-.43v-.74Zm1.43-1.43h-1.4v1h1.74v-.54Q159.45,37.28,159.1,37.32Z"/><path d="M163.56,35.15a7,7,0,0,1,1.32.89.79.79,0,0,1,.15,1,1.47,1.47,0,0,1-1.08.62,0,0,0,0,0,0,0l0,.08a3.07,3.07,0,0,1,.74.46.5.5,0,0,1,.12.7q-.58,1.08-1.63,2.75c0,.08,0,.09.08,0a15.2,15.2,0,0,0,1.59-2l.27.12a15.45,15.45,0,0,1-1.4,3.76l-1.08-1.35q1-1.55,1.43-2.36a.25.25,0,0,0-.08-.39,8.74,8.74,0,0,0-1.39-.89l.85-1.12q.85.12.62-.35a12.48,12.48,0,0,0-1.47-1Zm1.7,4.65h4.53a1,1,0,0,1,1,1v2.32h.43v.5h-6.55v-.5h.54Zm.27-4.49h4a1,1,0,0,1,1,1V38q0,1-1,1h-4.11Zm1,5v2.9h1.7V41.54c0-.05,0-.05,0,0l-.7,1.28c-.28.18-.46.12-.54-.19V40.26Zm.31-4.42v1h2.36v-.66a.34.34,0,0,0-.39-.39Zm2,2.71c.26,0,.39-.14.39-.43V37.4h-2.36v1.16Zm.35,1.71h-1.36v1.51c0,.08,0,.09,0,0l.58-1.08a.34.34,0,0,1,.43-.19c.15,0,.23.14.23.35v2.29h.43V40.65C169.56,40.39,169.45,40.26,169.21,40.26Z"/><path d="M176.18,38.21v-.47h2.13c-.05-.05-.08-.09-.08-.12a2.71,2.71,0,0,1-.23-.7.31.31,0,0,1,0-.12,7.88,7.88,0,0,0-1,.81.45.45,0,0,1-.5,0,2.26,2.26,0,0,1-.39-1l1-.23a1.31,1.31,0,0,1,.08.27q0,.16.12.39l.12-.12c.21-.16.48-.37.81-.66a0,0,0,0,0,0,0q-1.16,0-2.4,0l0-.39a18.57,18.57,0,0,0,4.22-1l1.24,1a14.43,14.43,0,0,1-2.56.31l0,0c.05,0,.08.05.08.08a.42.42,0,0,1,.08.15,3.56,3.56,0,0,0,.19.5l.12-.12a3,3,0,0,1,.62-.43,1.29,1.29,0,0,1,.89-.19c.26.05.35.23.27.54a3.64,3.64,0,0,0-.23.46c-.13.21-.22.36-.27.46h.5v.47h-2.83v.7h3.06v.5h-3.1a6,6,0,0,1,0,.66h2q.81.08.7.85a2.57,2.57,0,0,1-.39.85,4.86,4.86,0,0,1,.89.89l-1,1.08a3.12,3.12,0,0,0-.54-1,2.64,2.64,0,0,1-.43.31c.13-.08.1-.05-.08.08-.46.39-.85.53-1.16.43s-.45-.36-.43-.77a2.69,2.69,0,0,1,.5-1.28.77.77,0,0,1,.66-.39,1.87,1.87,0,0,1,.58.08,1.51,1.51,0,0,0,.08-.19,1.2,1.2,0,0,0,0-.19.17.17,0,0,0-.15-.23h-1.36a7.92,7.92,0,0,1-.66,2.13,1.55,1.55,0,0,1-1.32.89.73.73,0,0,1-.58-.77.73.73,0,0,1-.7.35h-2.17V35.62h2.13a.77.77,0,0,1,.81.81v5.65a3.5,3.5,0,0,1,.66-1.43,1.73,1.73,0,0,1,.54-.43,1.86,1.86,0,0,0,0-.43,3.19,3.19,0,0,0,0-.39h-1v-.5h1v-.7Zm-2.05-2.09h-.27V39h.5V36.31A.22.22,0,0,0,174.13,36.12Zm.23,3.37h-.5v3.25h.31q.19,0,.19-.19Zm2.05,2.9a11.63,11.63,0,0,0,.35-1.7.73.73,0,0,0-.43.35,3.29,3.29,0,0,0-.58,1.39q-.12.66.12.7C176.11,43.13,176.29,42.88,176.42,42.39Zm2.13.35a5.2,5.2,0,0,0,.62-1,.62.62,0,0,0-.43-.27.49.49,0,0,0-.5.31,2.05,2.05,0,0,0-.31.81c0,.21,0,.34.08.39S178.34,42.95,178.55,42.74Zm.23-5.11a.11.11,0,0,0-.08,0l-.12.08h.7a4.32,4.32,0,0,0,.46-.93A2.33,2.33,0,0,0,178.78,37.63Z"/></svg>